<svg xmlns="http://www.w3.org/2000/svg" viewBox="12433 990 25 26.959">
  <defs>
    <style>
      .cls-1 {
        fill: #5bacca;
      }

      .cls-2 {
        fill: #fff;
      }
    </style>
  </defs>
  <g id="place2" transform="translate(12415.2 990)">
    <path id="Path_606" data-name="Path 606" class="cls-1" d="M42.255,6.677H33.911V.545A.543.543,0,0,0,33.366,0H18.345A.543.543,0,0,0,17.8.545v25.87a.543.543,0,0,0,.545.545h23.91a.543.543,0,0,0,.545-.545V7.221A.543.543,0,0,0,42.255,6.677Zm-9.434.545L18.89,25.875ZM41.71,25.87h-7.8V7.761h7.8Z"/>
    <g id="Group_207" data-name="Group 207">
      <path id="Path_607" data-name="Path 607" class="cls-1" d="M339.745,172.59h3.55a.545.545,0,0,0,0-1.09h-3.55a.545.545,0,1,0,0,1.09Z" transform="translate(-303.71 -162.06)"/>
      <path id="Path_608" data-name="Path 608" class="cls-1" d="M339.745,222.29h3.55a.545.545,0,0,0,0-1.09h-3.55a.545.545,0,0,0,0,1.09Z" transform="translate(-303.71 -209.025)"/>
      <path id="Path_609" data-name="Path 609" class="cls-1" d="M339.745,271.89h3.55a.545.545,0,0,0,0-1.09h-3.55a.545.545,0,1,0,0,1.09Z" transform="translate(-303.71 -255.895)"/>
      <path id="Path_610" data-name="Path 610" class="cls-1" d="M339.745,321.59h3.55a.545.545,0,0,0,0-1.09h-3.55a.545.545,0,1,0,0,1.09Z" transform="translate(-303.71 -302.859)"/>
      <path id="Path_611" data-name="Path 611" class="cls-1" d="M339.745,371.19h3.55a.545.545,0,0,0,0-1.09h-3.55a.545.545,0,0,0,0,1.09Z" transform="translate(-303.71 -349.729)"/>
      <path id="Path_612" data-name="Path 612" class="cls-1" d="M339.745,420.89h3.55a.545.545,0,0,0,0-1.09h-3.55a.545.545,0,1,0,0,1.09Z" transform="translate(-303.71 -396.693)"/>
    </g>
    <g id="Group_206" data-name="Group 206">
      <path id="Path_615" data-name="Path 615" class="cls-2" d="M181.645,57.6a.543.543,0,0,0,.545-.545V55.845a.545.545,0,0,0-1.09,0V57.05A.546.546,0,0,0,181.645,57.6Z" transform="translate(-154.312 -52.256)"/>
      <path id="Path_616" data-name="Path 616" class="cls-2" d="M235.445,57.6a.543.543,0,0,0,.545-.545V55.845a.545.545,0,1,0-1.09,0V57.05A.543.543,0,0,0,235.445,57.6Z" transform="translate(-205.15 -52.256)"/>
      <path id="Path_617" data-name="Path 617" class="cls-2" d="M74.145,125.3a.543.543,0,0,0,.545-.545v-1.211a.545.545,0,1,0-1.09,0v1.211A.546.546,0,0,0,74.145,125.3Z" transform="translate(-52.729 -116.23)"/>
      <path id="Path_618" data-name="Path 618" class="cls-2" d="M127.945,125.3a.543.543,0,0,0,.545-.545v-1.211a.545.545,0,1,0-1.09,0v1.211A.546.546,0,0,0,127.945,125.3Z" transform="translate(-103.567 -116.23)"/>
      <path id="Path_619" data-name="Path 619" class="cls-2" d="M181.645,125.3a.543.543,0,0,0,.545-.545v-1.211a.545.545,0,0,0-1.09,0v1.211A.55.55,0,0,0,181.645,125.3Z" transform="translate(-154.312 -116.23)"/>
      <path id="Path_620" data-name="Path 620" class="cls-2" d="M235.445,125.3a.543.543,0,0,0,.545-.545v-1.211a.545.545,0,1,0-1.09,0v1.211A.546.546,0,0,0,235.445,125.3Z" transform="translate(-205.15 -116.23)"/>
      <path id="Path_621" data-name="Path 621" class="cls-2" d="M74.145,193.1a.543.543,0,0,0,.545-.545v-1.205a.545.545,0,1,0-1.09,0v1.205A.543.543,0,0,0,74.145,193.1Z" transform="translate(-52.729 -180.298)"/>
      <path id="Path_622" data-name="Path 622" class="cls-2" d="M127.945,193.1a.543.543,0,0,0,.545-.545v-1.205a.545.545,0,1,0-1.09,0v1.205A.543.543,0,0,0,127.945,193.1Z" transform="translate(-103.567 -180.298)"/>
      <path id="Path_623" data-name="Path 623" class="cls-2" d="M181.645,193.1a.543.543,0,0,0,.545-.545v-1.205a.545.545,0,0,0-1.09,0v1.205A.546.546,0,0,0,181.645,193.1Z" transform="translate(-154.312 -180.298)"/>
      <path id="Path_624" data-name="Path 624" class="cls-2" d="M235.445,193.1a.543.543,0,0,0,.545-.545v-1.205a.545.545,0,1,0-1.09,0v1.205A.543.543,0,0,0,235.445,193.1Z" transform="translate(-205.15 -180.298)"/>
      <path id="Path_625" data-name="Path 625" class="cls-2" d="M74.145,260.9a.543.543,0,0,0,.545-.545v-1.205a.545.545,0,1,0-1.09,0v1.205A.546.546,0,0,0,74.145,260.9Z" transform="translate(-52.729 -244.366)"/>
      <path id="Path_626" data-name="Path 626" class="cls-2" d="M127.945,260.9a.543.543,0,0,0,.545-.545v-1.205a.545.545,0,1,0-1.09,0v1.205A.546.546,0,0,0,127.945,260.9Z" transform="translate(-103.567 -244.366)"/>
      <path id="Path_627" data-name="Path 627" class="cls-2" d="M181.645,260.9a.543.543,0,0,0,.545-.545v-1.205a.545.545,0,0,0-1.09,0v1.205A.55.55,0,0,0,181.645,260.9Z" transform="translate(-154.312 -244.366)"/>
      <path id="Path_628" data-name="Path 628" class="cls-2" d="M235.445,260.9a.543.543,0,0,0,.545-.545v-1.205a.545.545,0,1,0-1.09,0v1.205A.546.546,0,0,0,235.445,260.9Z" transform="translate(-205.15 -244.366)"/>
      <path id="Path_629" data-name="Path 629" class="cls-2" d="M74.145,328.6a.543.543,0,0,0,.545-.545v-1.205a.545.545,0,1,0-1.09,0v1.205A.543.543,0,0,0,74.145,328.6Z" transform="translate(-52.729 -308.34)"/>
      <path id="Path_630" data-name="Path 630" class="cls-2" d="M127.945,328.6a.543.543,0,0,0,.545-.545v-1.205a.545.545,0,1,0-1.09,0v1.205A.543.543,0,0,0,127.945,328.6Z" transform="translate(-103.567 -308.34)"/>
      <path id="Path_631" data-name="Path 631" class="cls-2" d="M181.645,328.6a.543.543,0,0,0,.545-.545v-1.205a.545.545,0,0,0-1.09,0v1.205A.546.546,0,0,0,181.645,328.6Z" transform="translate(-154.312 -308.34)"/>
      <path id="Path_632" data-name="Path 632" class="cls-2" d="M235.445,328.6a.543.543,0,0,0,.545-.545v-1.205a.545.545,0,1,0-1.09,0v1.205A.543.543,0,0,0,235.445,328.6Z" transform="translate(-205.15 -308.34)"/>
      <path id="Path_633" data-name="Path 633" class="cls-2" d="M74.145,396.3a.543.543,0,0,0,.545-.545v-1.211a.545.545,0,1,0-1.09,0v1.211A.546.546,0,0,0,74.145,396.3Z" transform="translate(-52.729 -372.314)"/>
      <path id="Path_634" data-name="Path 634" class="cls-2" d="M127.945,396.3a.543.543,0,0,0,.545-.545v-1.211a.545.545,0,1,0-1.09,0v1.211A.546.546,0,0,0,127.945,396.3Z" transform="translate(-103.567 -372.314)"/>
      <path id="Path_635" data-name="Path 635" class="cls-2" d="M181.645,396.3a.543.543,0,0,0,.545-.545v-1.211a.545.545,0,0,0-1.09,0v1.211A.55.55,0,0,0,181.645,396.3Z" transform="translate(-154.312 -372.314)"/>
      <path id="Path_636" data-name="Path 636" class="cls-2" d="M235.445,396.3a.543.543,0,0,0,.545-.545v-1.211a.545.545,0,1,0-1.09,0v1.211A.546.546,0,0,0,235.445,396.3Z" transform="translate(-205.15 -372.314)"/>
      <path id="Path_614" data-name="Path 614" class="cls-2" d="M127.945,57.6a.543.543,0,0,0,.545-.545V55.845a.545.545,0,1,0-1.09,0V57.05A.543.543,0,0,0,127.945,57.6Z" transform="translate(-103.567 -52.256)"/>
      <path id="Path_613" data-name="Path 613" class="cls-2" d="M74.145,57.6a.543.543,0,0,0,.545-.545V55.845a.545.545,0,1,0-1.09,0V57.05A.543.543,0,0,0,74.145,57.6Z" transform="translate(-52.729 -52.256)"/>
    </g>
  </g>
</svg>
