<svg xmlns="http://www.w3.org/2000/svg" viewBox="3488.559 3266 16.319 21.507"><defs><style>.cls-1{fill:#11ebe6}</style></defs><g id="user-icon" transform="translate(3488.559 3266)"><path id="Path_46" data-name="Path 46" class="cls-1" d="M33.835 60.368H23a2.744 2.744 0 0 1-2.744-2.744V56.6a7.133 7.133 0 0 1 7.133-7.133h2.052a7.133 7.133 0 0 1 7.138 7.133v1.023a2.744 2.744 0 0 1-2.744 2.745zm-6.442-8.7a4.939 4.939 0 0 0-4.938 4.932v1.023a.549.549 0 0 0 .549.549h10.831a.549.549 0 0 0 .549-.549V56.6a4.939 4.939 0 0 0-4.939-4.939z" transform="translate(-20.26 -38.86)"/><path id="Path_47" data-name="Path 47" class="cls-1" d="M36.322 21.143a5.172 5.172 0 1 1 5.172-5.169 5.172 5.172 0 0 1-5.172 5.169zm0-8.149a2.977 2.977 0 1 0 2.977 2.98 2.977 2.977 0 0 0-2.977-2.98z" transform="translate(-28.162 -10.8)"/></g></svg>